<?xml version="1.0" standalone="no"?><!-- Generator: Gravit.io --><svg xmlns="http://www.w3.org/2000/svg" xmlns:xlink="http://www.w3.org/1999/xlink" style="isolation:isolate" viewBox="546 221.664 84.849 76.336" width="84.849" height="76.336"><g><path d=" M 549 295 L 578.054 295 C 579.128 295 580 294.128 580 293.054 L 580 261.008 C 580 259.397 581.308 258.089 582.919 258.089 L 593.081 258.089 C 594.692 258.089 596 259.397 596 261.008 L 596 293.054 C 596 294.128 596.872 295 597.946 295 L 600 295 L 602.054 295 C 603.128 295 604 294.128 604 293.054 L 604 244.919 C 604 243.308 605.308 242 606.919 242 L 616.081 242 C 617.692 242 619 243.308 619 244.919 L 619 285.333 L 619 293.054 C 619 294.128 619.872 295 620.946 295 L 627.849 295" fill="none" vector-effect="non-scaling-stroke" stroke-width="2" stroke="rgb(10,10,10)" stroke-linejoin="miter" stroke-linecap="round" stroke-miterlimit="3"/><path d=" M 557 289 L 557 272.854 C 557 271.279 558.279 270 559.854 270 L 570.146 270 C 571.721 270 573 271.279 573 272.854 L 573 289" fill="none" vector-effect="non-scaling-stroke" stroke-width="2" stroke="rgb(10,10,10)" stroke-linejoin="miter" stroke-linecap="square" stroke-miterlimit="3"/><path d=" M 558.796 260.836 L 612 225.061 L 602.315 223.164" fill="none" vector-effect="non-scaling-stroke" stroke-width="3" stroke="rgb(255,144,14)" stroke-linejoin="round" stroke-linecap="round" stroke-miterlimit="3"/><line x1="612" y1="225.061" x2="610.103" y2="234.746" vector-effect="non-scaling-stroke" stroke-width="3" stroke="rgb(255,144,14)" stroke-linejoin="round" stroke-linecap="round" stroke-miterlimit="3"/></g></svg>