<?xml version="1.0" standalone="no"?><!-- Generator: Gravit.io --><svg xmlns="http://www.w3.org/2000/svg" xmlns:xlink="http://www.w3.org/1999/xlink" style="isolation:isolate" viewBox="376 218 62 79" width="62" height="79"><g><path d=" M 419 291 L 399 291 C 397.344 291 396 289.656 396 288 L 396 288 C 396 286.344 397.344 285 399 285 L 415.656 285 C 417.312 285 418.656 283.656 418.656 282 L 418.656 282 C 418.656 280.344 417.312 279 415.656 279 L 399 279 C 397.344 279 396.01 277.656 396.023 276 Q 396.034 274.462 396 274.462 C 386.528 269.971 379 260.172 379 249 C 379 233.546 391.546 221 407 221 C 422.454 221 435 233.546 435 249 C 435 260.295 428.297 270.037 418.656 274.462" fill="none" vector-effect="non-scaling-stroke" stroke-width="2" stroke="rgb(10,10,10)" stroke-linejoin="miter" stroke-linecap="round" stroke-miterlimit="3"/><line x1="400" y1="296" x2="415" y2="296" vector-effect="non-scaling-stroke" stroke-width="2" stroke="rgb(10,10,10)" stroke-linejoin="miter" stroke-linecap="round" stroke-miterlimit="3"/><path d=" M 395 242 L 401 260 L 407 242 L 413 260 L 419 242" fill="none" vector-effect="non-scaling-stroke" stroke-width="3" stroke="rgb(255,144,14)" stroke-linejoin="round" stroke-linecap="round" stroke-miterlimit="3"/></g></svg>